<?xml version="1.0" standalone="no"?>
<!DOCTYPE svg PUBLIC "-//W3C//DTD SVG 20010904//EN"
 "http://www.w3.org/TR/2001/REC-SVG-20010904/DTD/svg10.dtd">
<svg version="1.0" xmlns="http://www.w3.org/2000/svg"
 width="1024.000000pt" height="1024.000000pt" viewBox="0 0 1024.000000 1024.000000"
 preserveAspectRatio="xMidYMid meet">

<g transform="translate(0.000000,1024.000000) scale(0.100000,-0.100000)"
fill="#000000" stroke="none">
<path d="M4278 7921 c-105 -34 -195 -105 -253 -201 -157 -258 -17 -587 282
-665 279 -73 564 150 563 440 -1 191 -134 368 -318 425 -81 25 -196 26 -274 1z"/>
<path d="M5718 7929 c-104 -24 -225 -115 -280 -210 -70 -119 -78 -289 -20
-412 40 -86 134 -182 214 -220 210 -99 452 -30 579 165 52 80 73 166 67 272
-4 73 -10 95 -42 161 -60 122 -163 207 -290 241 -57 15 -171 17 -228 3z"/>
<path d="M4797 6565 c-397 -50 -735 -188 -980 -401 -169 -146 -316 -377 -395
-619 -36 -109 -75 -283 -68 -302 4 -11 98 -13 499 -13 458 0 495 1 509 18 9 9
41 69 72 133 92 189 196 285 381 346 75 25 91 27 270 28 215 0 267 -9 395 -72
85 -41 184 -132 219 -200 66 -130 66 -302 0 -377 -35 -40 -140 -97 -231 -125
-105 -32 -302 -67 -563 -100 -390 -50 -550 -79 -748 -137 -446 -130 -756 -404
-846 -749 -87 -329 -24 -694 169 -981 74 -110 226 -257 328 -318 204 -121 428
-182 717 -193 379 -15 708 66 940 232 85 60 212 196 269 288 26 42 49 77 50
77 0 0 0 -115 -2 -255 l-3 -255 555 0 555 0 -23 58 c-27 68 -62 210 -76 307
-7 43 -13 502 -16 1190 -2 625 -9 1168 -15 1227 -26 282 -131 522 -313 715
-232 246 -540 400 -936 469 -131 22 -564 28 -713 9z m950 -2357 c-12 -380 -90
-581 -279 -723 -166 -125 -347 -180 -588 -179 -164 1 -252 19 -361 74 -266
135 -317 461 -101 650 100 88 262 144 527 180 401 55 622 101 735 153 30 14
59 26 64 26 5 1 6 -77 3 -181z"/>
</g>
</svg>
